<?xml version="1.0" encoding="utf-8"?>
<!-- Generator: Adobe Illustrator 15.0.0, SVG Export Plug-In . SVG Version: 6.00 Build 0)  -->
<!DOCTYPE svg PUBLIC "-//W3C//DTD SVG 1.1//EN" "http://www.w3.org/Graphics/SVG/1.1/DTD/svg11.dtd">
<svg version="1.1" id="Layer_1" xmlns="http://www.w3.org/2000/svg" xmlns:xlink="http://www.w3.org/1999/xlink" x="0px" y="0px"
	 width="288px" height="288px" viewBox="0 0 288 288" enable-background="new 0 0 288 288" xml:space="preserve">
<polyline fill="none" stroke="#9B1B1F" stroke-width="12" stroke-miterlimit="10" points="17.286,232.182 64.324,232.182
	78.76,137.825 95.262,245.589 107.118,184.747 116.916,232.182 267.893,232.182 "/>
<path fill="#21409A" d="M136.579,89.762c0-32.017-25.952-57.96-57.959-57.96c-32.009,0-57.958,25.943-57.958,57.96
	c0,29,21.326,52.95,49.135,57.212l0.626-4.12c-25.806-3.958-45.583-26.186-45.583-53.092c0-29.704,24.079-53.787,53.78-53.787
	s53.782,24.083,53.782,53.787c0,26.795-19.614,48.945-45.257,53.039l0.597,4.125C115.408,142.545,136.579,118.65,136.579,89.762z"/>
<path fill="#21409A" d="M119.408,89.762c0-22.526-18.268-40.786-40.788-40.786s-40.788,18.26-40.788,40.786
	c0,20.395,14.999,37.249,34.555,40.257l0.446-2.904c-18.15-2.793-32.056-18.431-32.056-37.353c0-20.901,16.942-37.848,37.842-37.848
	s37.842,16.947,37.842,37.848c0,18.762-13.669,34.296-31.588,37.286l0.415,2.9C104.63,126.761,119.408,110.007,119.408,89.762z"/>
<path fill="#21409A" d="M104,89.762c0-14.017-11.369-25.382-25.38-25.382c-14.013,0-25.378,11.365-25.378,25.382
	c0,12.678,9.331,23.094,21.479,24.983l0.279-1.8c-11.272-1.755-19.932-11.424-19.932-23.184c0-13.009,10.551-23.552,23.552-23.552
	s23.552,10.543,23.552,23.552c0,11.558-8.351,21.131-19.346,23.128l0.258,1.796C94.965,112.566,104,102.242,104,89.762z"/>
</svg>
